<?xml version="1.0" encoding="UTF-8" standalone="no"?>
<svg width="434px" height="501px" viewBox="0 0 434 501" version="1.1" xmlns="http://www.w3.org/2000/svg" xmlns:xlink="http://www.w3.org/1999/xlink">
    <!-- Generator: Sketch 39.1 (31720) - http://www.bohemiancoding.com/sketch -->
    <title>original</title>
    <desc>Created with Sketch.</desc>
    <defs>
        <filter x="-50%" y="-50%" width="200%" height="200%" filterUnits="objectBoundingBox" id="filter-1">
            <feOffset dx="0" dy="0" in="SourceAlpha" result="shadowOffsetOuter1"></feOffset>
            <feGaussianBlur stdDeviation="4" in="shadowOffsetOuter1" result="shadowBlurOuter1"></feGaussianBlur>
            <feColorMatrix values="0 0 0 0 0   0 0 0 0 0   0 0 0 0 0  0 0 0 0.5 0" type="matrix" in="shadowBlurOuter1" result="shadowMatrixOuter1"></feColorMatrix>
            <feMerge>
                <feMergeNode in="shadowMatrixOuter1"></feMergeNode>
                <feMergeNode in="SourceGraphic"></feMergeNode>
            </feMerge>
        </filter>
    </defs>
    <g id="afiche" stroke="none" stroke-width="1" fill="none" fill-rule="evenodd">
        <g id="A4-Copy" transform="translate(-389.000000, -202.000000)">
            <g id="original" transform="translate(281.000000, 140.000000)">
                <g id="puro" fill="#336AB0">
                    <polygon id="Shape" transform="translate(324.756351, 312.494500) rotate(150.000000) translate(-324.756351, -312.494500) " points="199.756351 528.9945 74.7563509 312.4945 199.756351 95.9944999 449.756351 95.9944999 574.756351 312.4945 449.756351 528.9945"></polygon>
                </g>
                <g id="BONBILLO" filter="url(#filter-1)" transform="translate(213.000000, 157.000000)" fill="#FFFFFF">
                    <g id="Layer_1">
                        <g id="change1">
                            <path d="M224.398209,98.0491109 C224.398209,43.9848953 174.066045,0 112.199104,0 C50.3321642,0 0,43.9842936 0,98.0491109 C0,124.061735 13.0540299,141.873969 25.676194,159.099 C38.7315672,176.911234 51.0622388,193.737376 51.0622388,220.574251 L51.0622388,237.783639 C51.0622388,247.971255 55.5454478,257.516316 63.6877612,264.668043 L82.4178358,281.446053 C90.6293284,288.80294 101.411866,292.479579 112.199104,292.478376 C122.984328,292.477774 133.770896,288.800534 141.981045,281.446053 L160.712463,264.667441 C168.854776,257.515113 173.337313,247.970653 173.337313,237.783639 L173.337313,228.154949 C173.337313,221.89245 174.651716,207.472277 174.912985,204.669825 C178.65806,186.226468 188.470746,172.824877 198.860373,158.64837 C211.414701,141.51539 224.398209,123.801825 224.398209,98.0491109 L224.398209,98.0491109 Z M71.2121642,237.783037 L71.2121642,220.573649 C71.2121642,217.77962 71.0979851,215.073431 70.8797015,212.446057 L154.036343,212.446057 C153.868433,214.590312 153.699179,216.888587 153.557463,219.128503 L112.200448,219.128503 C106.635896,219.128503 102.125821,223.169136 102.125821,228.153144 C102.125821,233.13655 106.635896,237.177784 112.200448,237.177784 L153.187388,237.177784 L153.187388,237.781834 C153.187388,240.584285 152.527836,243.293483 151.281269,245.778267 C151.14291,245.772251 151.006567,245.759616 150.866866,245.759616 L73.5333582,245.759616 C73.3929851,245.759616 73.2566418,245.772251 73.1182836,245.778267 C71.8730597,243.294084 71.2121642,240.585489 71.2121642,237.783037 L71.2121642,237.783037 Z M127.597836,136.895977 C127.585746,137.473554 127.306343,146.270172 121.594701,157.410791 C118.785224,162.888146 115.196642,167.991279 110.844403,172.702142 C93.3259701,155.067392 94.7975373,139.611793 94.9815672,138.167248 L95.0870149,137.650437 L95.0870149,136.854464 C95.0870149,128.82494 102.378358,122.292906 111.342761,122.292906 C120.306493,122.292906 127.598507,128.82494 127.598507,136.854464 L127.596493,136.831 L127.597836,136.895977 L127.597836,136.895977 Z M96.6660448,268.681602 L91.2264179,263.808897 L133.173134,263.808897 L127.732836,268.681602 C119.168731,276.353749 105.232164,276.353749 96.6660448,268.681602 L96.6660448,268.681602 Z M156.809552,194.396776 L142.750746,194.396776 C142.654701,194.34684 142.567388,194.290285 142.467985,194.242756 C136.112239,191.161743 130.603433,188.003119 125.824701,184.827047 C147.390448,161.95199 147.753806,138.653977 147.748433,136.832805 C147.735672,118.859932 131.410075,104.242421 111.343433,104.242421 C91.475597,104.242421 75.2735821,118.571745 74.943806,136.300351 C74.4340299,140.817485 73.4111194,162.440524 96.2523134,185.153739 C91.423209,188.443522 86.075597,191.450532 80.2202239,194.165745 C80.0664179,194.236138 79.9260448,194.319766 79.7789552,194.396776 L67.5550746,194.396776 C62.2249254,176.077357 51.9347015,162.035016 42.5229851,149.192953 C30.5187313,132.812027 20.150597,118.666805 20.150597,98.0485092 C20.1499254,53.937269 61.4431343,18.0492813 112.200448,18.0492813 C162.956418,18.0492813 204.249627,53.9366674 204.249627,98.0491109 C204.249627,118.406294 193.946642,132.463676 182.015597,148.741721 C172.640149,161.533848 162.156493,175.837903 156.809552,194.396776 L156.809552,194.396776 Z" id="Shape"></path>
                        </g>
                    </g>
                </g>
            </g>
        </g>
    </g>
</svg>